<svg width="16" height="16" viewBox="0 0 16 16" fill="none" xmlns="http://www.w3.org/2000/svg">
<path fill-rule="evenodd" clip-rule="evenodd" d="M8.01797 0.701222C8.71883 0.771937 9.40868 1.03485 9.98478 1.43375C11.1462 2.23881 11.8507 3.557 11.8544 4.96223V4.96585C11.8525 5.33756 11.8048 5.71108 11.7094 6.07009C11.5168 6.7863 11.1296 7.45174 10.6031 7.97938C10.3462 8.23686 10.0508 8.46532 9.73709 8.65208C9.66503 8.69481 9.59015 8.73227 9.51529 8.76972C9.40909 8.82284 9.30296 8.87594 9.20503 8.944C9.19677 8.95035 9.18851 8.95624 9.18026 8.96213C9.172 8.96803 9.16374 8.97392 9.15549 8.98026C9.152 8.98371 9.13744 8.99518 9.12679 9.00358C9.12064 9.00842 9.1158 9.01224 9.11512 9.0129C9.08577 9.03829 9.05641 9.06367 9.02706 9.09087C8.96651 9.14708 8.91147 9.20691 8.85643 9.27038C8.85093 9.27763 8.84542 9.28307 8.84359 9.28488C8.84542 9.28307 8.84542 9.28126 8.84542 9.28126C8.84542 9.28126 8.83441 9.29395 8.84359 9.28488C8.84292 9.28555 8.84225 9.2867 8.84139 9.28815C8.83992 9.29068 8.8379 9.29413 8.83441 9.29757C8.83131 9.30179 8.82812 9.30609 8.82489 9.31046C8.81283 9.32672 8.80012 9.34388 8.78855 9.36104C8.76653 9.39367 8.74451 9.42631 8.72433 9.46076C8.68397 9.52785 8.64727 9.59856 8.61608 9.66928C8.61608 9.66928 8.59407 9.72005 8.59223 9.7273C8.58856 9.73818 8.58489 9.74861 8.58122 9.75903C8.57755 9.76946 8.57388 9.77988 8.57021 9.79076C8.55554 9.83428 8.54269 9.87598 8.53169 9.9195C8.52251 9.95758 8.51334 9.99747 8.506 10.0374C8.504 10.0462 8.50255 10.0551 8.50105 10.0643C8.49979 10.072 8.4985 10.0799 8.49683 10.0881V10.0899V10.0918V10.0936V10.0954C8.49683 10.0988 8.49609 10.1037 8.49555 10.1073C8.49524 10.1094 8.49499 10.111 8.49499 10.1117C8.45463 10.5033 8.52068 10.8515 8.70965 11.1779C8.78285 11.3026 8.86386 11.3947 8.95148 11.4943C8.99125 11.5396 9.03238 11.5863 9.07476 11.6384C9.22337 11.8197 9.33529 12.0119 9.41785 12.2313C9.56463 12.6248 9.58298 13.0618 9.49124 13.4679C9.33346 14.166 8.81607 14.739 8.15007 15.0073C7.81431 15.1433 7.46021 15.1705 7.10061 15.1596C6.74651 15.1488 6.39241 15.1107 6.04381 15.0508C4.72099 14.8224 3.47705 14.2168 2.47163 13.341C1.47354 12.4707 0.726812 11.3265 0.330514 10.0718C-0.0841312 8.7645 -0.107982 7.33751 0.255291 6.01751C0.602052 4.74464 1.31209 3.57332 2.27715 2.66672C3.24587 1.7565 4.46596 1.111 5.77411 0.833585C6.50616 0.677651 7.27124 0.625068 8.01797 0.701222ZM2.1322 7.99026C2.14505 8.60312 2.53584 9.14164 3.11744 9.3556C3.6807 9.56411 4.36505 9.38461 4.74484 8.92406C5.14297 8.44537 5.21819 7.7618 4.89161 7.22328C4.56687 6.68839 3.93389 6.42185 3.31743 6.53789C2.63675 6.66663 2.14688 7.28493 2.1322 7.95762V7.97576V7.97757V7.99026ZM5.01271 12.7463C5.46588 12.9131 6.01813 12.768 6.32453 12.3981C6.64743 12.0101 6.70982 11.4553 6.44378 11.0183C6.17775 10.5831 5.66586 10.3728 5.16499 10.4671C4.61824 10.5686 4.22928 11.0691 4.21277 11.6094V11.6275V11.6438C4.22561 12.1425 4.54118 12.5722 5.01271 12.7463ZM6.41259 6.08459C7.11345 6.33663 7.95559 6.11179 8.42894 5.54064C8.92615 4.94228 9.01055 4.08646 8.5959 3.4192C8.1886 2.76464 7.40701 2.43645 6.64743 2.58332C5.80347 2.74469 5.19434 3.50986 5.17966 4.34937V4.36387V4.3675V4.38019C5.19251 5.14717 5.68421 5.82168 6.41259 6.08459ZM15.9935 3.02212C15.9926 3.02665 15.9921 3.03073 15.9917 3.03481C15.9914 3.03684 15.9912 3.03887 15.9909 3.04095C15.9906 3.04306 15.9903 3.04522 15.9898 3.04751C15.9898 3.05112 15.9894 3.05519 15.9889 3.05926L15.9889 3.05929C15.9886 3.06207 15.9883 3.06484 15.9881 3.06747C15.988 3.06871 15.988 3.06992 15.988 3.07108C15.988 3.0738 15.9875 3.07652 15.9871 3.07924C15.9866 3.08196 15.9862 3.08468 15.9862 3.0874C15.9605 3.2712 15.9339 3.455 15.9074 3.63901C15.8789 3.83619 15.8504 4.03362 15.8229 4.23152C15.7715 4.58791 15.7206 4.9443 15.6696 5.3007C15.6187 5.65689 15.5678 6.01308 15.5165 6.36928C15.4666 6.72022 15.4162 7.07065 15.3658 7.42083C15.3217 7.72742 15.2776 8.03382 15.2339 8.34022C15.2229 8.418 15.2126 8.49636 15.2023 8.57495V8.57496C15.1546 8.93971 15.1062 9.30954 14.9734 9.65116C14.8949 9.85311 14.8014 10.0511 14.7085 10.2481L14.7084 10.2483C14.6753 10.3183 14.6423 10.3881 14.6101 10.458C14.556 10.5768 14.5019 10.6951 14.4477 10.8134C14.3936 10.9317 14.3395 11.05 14.2854 11.1688C14.2523 11.2431 14.1514 11.2685 14.0781 11.2522C14.0083 11.2359 13.9368 11.2196 13.8671 11.2051C13.6185 11.1489 13.3703 11.0922 13.1222 11.0355C12.874 10.9789 12.6259 10.9222 12.3773 10.866C12.2984 10.8479 12.2433 10.7681 12.2433 10.6919C12.2433 10.6783 12.2438 10.6647 12.2443 10.6511C12.2447 10.6375 12.2452 10.6239 12.2452 10.6103C12.2562 10.2368 12.2672 9.86149 12.2764 9.48797C12.2874 9.11627 12.3149 8.75181 12.4305 8.39461L12.4306 8.39414C12.5774 7.94281 12.7241 7.49149 12.8726 7.04016C12.9847 6.69701 13.0964 6.35387 13.2081 6.01087L13.2085 6.00947L13.2088 6.00881C13.3565 5.55503 13.5041 5.1015 13.6524 4.64856C13.7496 4.34938 13.8473 4.05066 13.945 3.75193C14.0427 3.45321 14.1404 3.15448 14.2377 2.85531L14.2387 2.85212C14.3117 2.6302 14.3835 2.41211 14.5698 2.2497C14.8321 2.02124 15.1972 1.95778 15.5165 2.10827C15.8559 2.26783 16.0375 2.65948 15.9935 3.02212ZM14.2817 13.4081C14.1276 14.0046 13.7441 14.5015 13.2157 14.8206C12.7938 15.0762 12.3057 15.2177 11.8195 15.2848C11.5792 15.3174 11.3333 15.3428 11.0893 15.3301C11.0361 15.3283 10.9939 15.3065 10.9645 15.2757V15.2739C10.9077 15.2249 10.882 15.1451 10.9278 15.0635L10.9279 15.0635C10.9334 15.0527 10.9389 15.0418 10.9462 15.0309C10.9554 15.0146 10.9627 14.9983 10.97 14.9819L10.9712 14.9796C10.9727 14.9768 10.9741 14.9743 10.9755 14.9729C10.9755 14.972 10.976 14.9715 10.9765 14.9711C10.9769 14.9706 10.9774 14.9702 10.9774 14.9693C10.9792 14.9638 10.9811 14.9602 10.9811 14.9602C10.9811 14.9602 10.9792 14.962 10.9792 14.9638C10.9847 14.9511 10.9902 14.9384 10.9939 14.9257C11.0104 14.8822 11.0251 14.8387 11.0379 14.7952C11.1168 14.5395 11.1535 14.2911 11.1682 14.03C11.1792 13.8324 11.1774 13.6347 11.1664 13.4371C11.1643 13.4045 11.1621 13.372 11.1599 13.3396C11.1481 13.1686 11.1365 13.0002 11.1535 12.8279C11.1865 12.4997 11.2875 12.1806 11.4911 11.9177C11.6709 11.6838 11.9076 11.5188 12.181 11.4063C12.2232 11.39 12.2654 11.3955 12.3039 11.4136L12.9725 11.5661L13.6396 11.7182C13.6634 11.7236 13.6875 11.7289 13.7115 11.7341C13.7596 11.7446 13.8077 11.7551 13.8542 11.7672C13.9937 11.8034 14.0817 11.9702 14.1441 12.0899C14.3643 12.4979 14.3973 12.9657 14.2817 13.4081Z" fill="url(#paint0_linear_1309_1502)"/>
<defs>
<linearGradient id="paint0_linear_1309_1502" x1="0.562595" y1="9.25941" x2="14.3036" y2="2.28219" gradientUnits="userSpaceOnUse">
<stop stop-color="#3390EC"/>
<stop offset="0.2311" stop-color="#6E9BF4"/>
<stop offset="0.3723" stop-color="#949EEE"/>
<stop offset="0.5804" stop-color="#D3A2E4"/>
<stop offset="0.8703" stop-color="#F8BAC0"/>
<stop offset="0.9227" stop-color="#FAC3B5"/>
<stop offset="1" stop-color="#FFD69C"/>
</linearGradient>
</defs>
</svg>
