<svg width="16" height="16" viewBox="0 0 16 16" fill="none" xmlns="http://www.w3.org/2000/svg">
<path fill-rule="evenodd" clip-rule="evenodd" d="M8.01797 0.701466C8.71883 0.772181 9.40868 1.03509 9.98478 1.434C11.1462 2.23905 11.8507 3.55725 11.8544 4.96247V4.9661C11.8525 5.3378 11.8048 5.71132 11.7094 6.07033C11.5168 6.78654 11.1296 7.45199 10.6031 7.97963C10.3462 8.2371 10.0508 8.46556 9.73709 8.65232C9.66503 8.69505 9.59015 8.73251 9.51529 8.76996C9.40909 8.82308 9.30296 8.87618 9.20503 8.94425C9.19677 8.95059 9.18851 8.95648 9.18026 8.96238C9.172 8.96827 9.16374 8.97416 9.15549 8.98051C9.152 8.98396 9.13744 8.99543 9.12679 9.00382C9.12064 9.00866 9.1158 9.01248 9.11512 9.01315C9.08577 9.03853 9.05641 9.06392 9.02706 9.09111C8.96651 9.14732 8.91147 9.20716 8.85643 9.27062C8.85093 9.27787 8.84542 9.28331 8.84359 9.28513C8.84542 9.28331 8.84542 9.2815 8.84542 9.2815C8.84542 9.2815 8.83441 9.29419 8.84359 9.28513C8.84292 9.28579 8.84225 9.28694 8.84139 9.2884C8.83992 9.29092 8.8379 9.29437 8.83441 9.29782C8.83131 9.30204 8.82812 9.30634 8.82489 9.3107C8.81283 9.32697 8.80012 9.34412 8.78855 9.36128C8.76653 9.39392 8.74451 9.42655 8.72433 9.46101C8.68397 9.52809 8.64727 9.59881 8.61608 9.66952C8.61608 9.66952 8.59407 9.72029 8.59223 9.72755C8.58856 9.73843 8.58489 9.74885 8.58122 9.75928C8.57755 9.7697 8.57388 9.78013 8.57021 9.79101C8.55554 9.83452 8.54269 9.87623 8.53169 9.91974C8.52251 9.95782 8.51334 9.99771 8.506 10.0376C8.504 10.0465 8.50255 10.0554 8.50105 10.0645C8.49979 10.0722 8.4985 10.0801 8.49683 10.0884V10.0902V10.092V10.0938V10.0956C8.49683 10.0991 8.49609 10.104 8.49555 10.1076C8.49524 10.1096 8.49499 10.1113 8.49499 10.1119C8.45463 10.5036 8.52068 10.8517 8.70965 11.1781C8.78285 11.3028 8.86386 11.3949 8.95148 11.4946C8.99125 11.5398 9.03238 11.5866 9.07476 11.6387C9.22337 11.82 9.33529 12.0122 9.41785 12.2316C9.56463 12.625 9.58298 13.062 9.49124 13.4682C9.33346 14.1662 8.81607 14.7392 8.15007 15.0076C7.81431 15.1436 7.46021 15.1708 7.10061 15.1599C6.74651 15.149 6.39241 15.1109 6.04381 15.0511C4.72098 14.8226 3.47705 14.217 2.47163 13.3412C1.47354 12.4709 0.726812 11.3268 0.330514 10.0721C-0.0841312 8.76474 -0.107982 7.33776 0.255291 6.01775C0.602052 4.74489 1.31209 3.57357 2.27715 2.66697C3.24587 1.75674 4.46596 1.11125 5.77411 0.833829C6.50616 0.677895 7.27124 0.625312 8.01797 0.701466ZM2.1322 7.99051C2.14505 8.60336 2.53584 9.14188 3.11744 9.35584C3.6807 9.56436 4.36505 9.38485 4.74484 8.9243C5.14297 8.44562 5.21819 7.76204 4.89161 7.22353C4.56687 6.68863 3.93389 6.42209 3.31743 6.53814C2.63675 6.66687 2.14688 7.28517 2.1322 7.95787V7.976V7.97781V7.99051ZM5.0127 12.7465C5.46588 12.9133 6.01813 12.7683 6.32453 12.3984C6.64743 12.0104 6.70982 11.4555 6.44378 11.0185C6.17775 10.5834 5.66586 10.373 5.16499 10.4673C4.61824 10.5689 4.22928 11.0693 4.21277 11.6096V11.6278V11.6441C4.22561 12.1427 4.54118 12.5724 5.0127 12.7465ZM6.41259 6.08484C7.11345 6.33687 7.95559 6.11204 8.42894 5.54088C8.92615 4.94253 9.01055 4.0867 8.5959 3.41944C8.18859 2.76488 7.40701 2.43669 6.64743 2.58356C5.80347 2.74494 5.19434 3.5101 5.17966 4.34961V4.36412V4.36774V4.38044C5.19251 5.14742 5.68421 5.82193 6.41259 6.08484ZM15.9935 3.02237C15.9926 3.0269 15.9921 3.03098 15.9917 3.03506C15.9914 3.03708 15.9912 3.03911 15.9909 3.04119C15.9906 3.0433 15.9903 3.04547 15.9898 3.04775C15.9898 3.05137 15.9894 3.05544 15.9889 3.05951L15.9889 3.05954C15.9886 3.06231 15.9883 3.06508 15.9881 3.06772C15.988 3.06895 15.988 3.07016 15.988 3.07132C15.988 3.07404 15.9875 3.07676 15.9871 3.07948C15.9866 3.0822 15.9862 3.08492 15.9862 3.08764C15.9605 3.27144 15.9339 3.45525 15.9074 3.63925C15.8789 3.83644 15.8504 4.03386 15.8229 4.23177C15.7715 4.58816 15.7206 4.94455 15.6696 5.30094C15.6187 5.65713 15.5678 6.01333 15.5165 6.36952C15.4666 6.72046 15.4162 7.07089 15.3658 7.42108C15.3217 7.72766 15.2776 8.03406 15.2339 8.34046C15.2229 8.41825 15.2126 8.4966 15.2023 8.57519V8.5752C15.1546 8.93995 15.1062 9.30979 14.9734 9.6514C14.8949 9.85335 14.8014 10.0514 14.7085 10.2483L14.7084 10.2485C14.6753 10.3185 14.6423 10.3884 14.6101 10.4583C14.556 10.577 14.5019 10.6953 14.4477 10.8137C14.3936 10.932 14.3395 11.0503 14.2854 11.169C14.2523 11.2434 14.1514 11.2688 14.0781 11.2525C14.0083 11.2361 13.9368 11.2198 13.8671 11.2053C13.6185 11.1491 13.3703 11.0924 13.1222 11.0358C12.874 10.9791 12.6259 10.9225 12.3773 10.8662C12.2984 10.8481 12.2433 10.7683 12.2433 10.6922C12.2433 10.6786 12.2438 10.665 12.2443 10.6514C12.2447 10.6378 12.2452 10.6242 12.2452 10.6106C12.2562 10.2371 12.2672 9.86173 12.2764 9.48821C12.2874 9.11651 12.3149 8.75206 12.4305 8.39486L12.4306 8.39438C12.5774 7.94306 12.7241 7.49173 12.8726 7.0404C12.9847 6.69726 13.0964 6.35411 13.2081 6.01111L13.2085 6.00971L13.2088 6.00905C13.3565 5.55527 13.5041 5.10174 13.6524 4.6488C13.7496 4.34962 13.8473 4.0509 13.945 3.75218C14.0427 3.45345 14.1404 3.15473 14.2377 2.85555L14.2387 2.85237C14.3117 2.63044 14.3835 2.41235 14.5698 2.24994C14.8321 2.02148 15.1972 1.95802 15.5165 2.10852C15.8559 2.26808 16.0375 2.65973 15.9935 3.02237ZM14.2817 13.4083C14.1276 14.0049 13.7441 14.5017 13.2157 14.8208C12.7937 15.0765 12.3057 15.2179 11.8195 15.285C11.5792 15.3176 11.3333 15.343 11.0893 15.3303C11.0361 15.3285 10.9939 15.3068 10.9645 15.2759V15.2741C10.9077 15.2252 10.882 15.1454 10.9278 15.0638L10.9279 15.0638C10.9334 15.0529 10.9389 15.042 10.9462 15.0311C10.9554 15.0148 10.9627 14.9985 10.97 14.9822L10.9712 14.9799C10.9727 14.9771 10.9741 14.9746 10.9755 14.9731C10.9755 14.9722 10.976 14.9718 10.9765 14.9713C10.9769 14.9709 10.9774 14.9704 10.9774 14.9695C10.9792 14.9641 10.9811 14.9604 10.9811 14.9604C10.9811 14.9604 10.9792 14.9622 10.9792 14.9641C10.9847 14.9514 10.9902 14.9387 10.9939 14.926C11.0104 14.8825 11.0251 14.839 11.0379 14.7954C11.1168 14.5398 11.1535 14.2914 11.1682 14.0303C11.1792 13.8326 11.1774 13.635 11.1664 13.4374C11.1643 13.4047 11.1621 13.3723 11.1599 13.3399C11.1481 13.1688 11.1365 13.0004 11.1535 12.8281C11.1865 12.4999 11.2874 12.1808 11.4911 11.9179C11.6709 11.684 11.9076 11.519 12.181 11.4066C12.2232 11.3903 12.2654 11.3957 12.3039 11.4138L12.9725 11.5663L13.6396 11.7184C13.6634 11.7239 13.6875 11.7291 13.7115 11.7344C13.7596 11.7448 13.8077 11.7553 13.8542 11.7674C13.9937 11.8037 14.0817 11.9705 14.1441 12.0901C14.3643 12.4981 14.3973 12.9659 14.2817 13.4083Z" fill="white"/>
</svg>
