<svg width="24" height="24" viewBox="0 0 24 24" fill="none" xmlns="http://www.w3.org/2000/svg">
<path d="M17.377 15.0532C17.377 15.5015 17.02 15.8418 16.6216 15.8418C16.2148 15.8418 15.8745 15.4766 15.8745 15.0864V12.0151L16.0239 8.13867L14.6543 9.69092L6.41162 17.9253C6.26221 18.083 6.07959 18.1494 5.88867 18.1494C5.47363 18.1494 5.1167 17.7759 5.1167 17.3774C5.1167 17.1948 5.19971 17.0039 5.34912 16.8545L13.5752 8.61182L15.1191 7.25879L11.0684 7.3916H8.17969C7.78955 7.3916 7.43262 7.05127 7.43262 6.65283C7.43262 6.25439 7.74805 5.89746 8.21289 5.89746H16.5635C17.0615 5.89746 17.3687 6.22949 17.3687 6.70264L17.377 15.0532Z" fill="#212121"/>
</svg>
