<svg width="24" height="24" viewBox="0 0 24 24" fill="none" xmlns="http://www.w3.org/2000/svg">
<path fill-rule="evenodd" clip-rule="evenodd" d="M6 5C6 4.44772 6.44772 4 7 4H17C17.5523 4 18 4.44772 18 5V18.8866C18 19.318 17.4903 19.5469 17.1678 19.2603L12.6644 15.2572C12.2855 14.9204 11.7145 14.9204 11.3356 15.2572L6.83218 19.2603C6.50973 19.5469 6 19.318 6 18.8866V5ZM7 2.5H17C18.3807 2.5 19.5 3.61929 19.5 5V18.8866C19.5 20.6123 17.4611 21.5279 16.1713 20.3814L12 16.6736L7.82873 20.3814C6.53893 21.5279 4.5 20.6123 4.5 18.8866V5C4.5 3.61929 5.61929 2.5 7 2.5Z" fill="#3390EC"/>
</svg>
