<svg width="16" height="16" viewBox="0 0 16 16" fill="none" xmlns="http://www.w3.org/2000/svg">
<path fill-rule="evenodd" clip-rule="evenodd" d="M3.99997 1.4668H9.3333C10.3642 1.4668 11.2 2.30253 11.2 3.33346V12.6668C11.2 13.6977 10.3642 14.5335 9.3333 14.5335H3.99997C2.96904 14.5335 2.1333 13.6977 2.1333 12.6668V3.33346C2.1333 2.30253 2.96904 1.4668 3.99997 1.4668ZM3.99997 2.6668C3.63178 2.6668 3.3333 2.96527 3.3333 3.33346V12.6668C3.3333 13.035 3.63178 13.3335 3.99997 13.3335H9.3333C9.70149 13.3335 9.99997 13.035 9.99997 12.6668V3.33346C9.99997 2.96527 9.70149 2.6668 9.3333 2.6668H3.99997Z" fill="#333333"/>
<path fill-rule="evenodd" clip-rule="evenodd" d="M9.99997 3.60013H12.1333C13.1642 3.60013 14 4.43587 14 5.4668V10.5335C14 11.5644 13.1642 12.4001 12.1333 12.4001H9.99997V3.60013ZM12.1333 11.2001C12.2281 11.2001 12.3183 11.1803 12.4 11.1447C12.6354 11.0418 12.8 10.8068 12.8 10.5335V5.4668C12.8 5.19342 12.6354 4.95848 12.4 4.8556C12.3183 4.81992 12.2281 4.80013 12.1333 4.80013H11.2V11.2001H12.1333Z" fill="#333333"/>
</svg>
