<svg width="24" height="24" viewBox="0 0 24 24" fill="none" xmlns="http://www.w3.org/2000/svg">
<path fill-rule="evenodd" clip-rule="evenodd" d="M6.70713 5.14282C6.31658 5.14282 5.99998 5.43064 5.99998 5.78568C5.99998 6.14072 6.31658 6.42854 6.70713 6.42854H17.2928C17.6834 6.42854 18 6.14072 18 5.78568C18 5.43064 17.6834 5.14282 17.2928 5.14282H6.70713ZM5.14284 8.99997H18.8571C19.5672 8.99997 20.1428 9.5756 20.1428 10.2857V17.1428C20.1428 17.8529 19.5672 18.4285 18.8571 18.4285H5.14284C4.43276 18.4285 3.85713 17.8529 3.85713 17.1428V10.2857C3.85713 9.5756 4.43276 8.99997 5.14284 8.99997ZM2.57141 10.2857C2.57141 8.86552 3.72268 7.71425 5.14284 7.71425H18.8571C20.2773 7.71425 21.4286 8.86552 21.4286 10.2857V17.1428C21.4286 18.563 20.2773 19.7143 18.8571 19.7143H5.14284C3.72268 19.7143 2.57141 18.563 2.57141 17.1428V10.2857ZM8.7857 13.7143C8.7857 13.3592 9.07351 13.0714 9.42855 13.0714H11.3571V11.1428C11.3571 10.7878 11.6449 10.5 12 10.5C12.355 10.5 12.6428 10.7878 12.6428 11.1428V13.0714H14.5714C14.9265 13.0714 15.2143 13.3592 15.2143 13.7143C15.2143 14.0693 14.9265 14.3571 14.5714 14.3571H12.6428V16.2857C12.6428 16.6407 12.355 16.9285 12 16.9285C11.6449 16.9285 11.3571 16.6407 11.3571 16.2857V14.3571H9.42855C9.07351 14.3571 8.7857 14.0693 8.7857 13.7143Z" fill="#333333"/>
</svg>
