<svg width="24" height="24" viewBox="0 0 24 24" fill="none" xmlns="http://www.w3.org/2000/svg">
<path fill-rule="evenodd" clip-rule="evenodd" d="M7.00008 3.83301H13.6667C14.9554 3.83301 16.0001 4.87768 16.0001 6.16634V17.833C16.0001 19.1217 14.9554 20.1663 13.6667 20.1663H7.00008C5.71142 20.1663 4.66675 19.1217 4.66675 17.833V6.16634C4.66675 4.87767 5.71142 3.83301 7.00008 3.83301ZM7.00008 5.33301C6.53984 5.33301 6.16675 5.7061 6.16675 6.16634V17.833C6.16675 18.2932 6.53984 18.6663 7.00008 18.6663H13.6667C14.127 18.6663 14.5001 18.2932 14.5001 17.833V6.16634C14.5001 5.7061 14.127 5.33301 13.6667 5.33301H7.00008Z" fill="#333333"/>
<path fill-rule="evenodd" clip-rule="evenodd" d="M14.5001 6.49967H17.1667C18.4554 6.49967 19.5001 7.54434 19.5001 8.83301V15.1663C19.5001 16.455 18.4554 17.4997 17.1667 17.4997H14.5001V6.49967ZM17.1667 15.9997C17.2853 15.9997 17.398 15.9749 17.5001 15.9303C17.7944 15.8017 18.0001 15.5081 18.0001 15.1663V8.83301C18.0001 8.49129 17.7944 8.19761 17.5001 8.06902C17.398 8.02442 17.2853 7.99967 17.1667 7.99967H16.0001V15.9997H17.1667Z" fill="#333333"/>
</svg>
