<svg width="20" height="20" viewBox="0 0 20 20" fill="none" xmlns="http://www.w3.org/2000/svg">
<path fill-rule="evenodd" clip-rule="evenodd" d="M10.4166 4.79175C7.77022 4.79175 5.62492 6.93705 5.62492 9.58341C5.62492 10.5691 5.92187 11.4835 6.43107 12.2445L6.58498 12.4745L6.51814 12.743C6.34267 13.448 5.98341 14.0334 5.62154 14.479C6.25482 14.4494 6.99352 14.306 7.60395 13.8922L7.90995 13.6848L8.23911 13.853C8.89175 14.1866 9.63125 14.3751 10.4166 14.3751C13.063 14.3751 15.2083 12.2298 15.2083 9.58341C15.2083 6.93705 13.063 4.79175 10.4166 4.79175ZM4.37492 9.58341C4.37492 6.24669 7.07987 3.54175 10.4166 3.54175C13.7533 3.54175 16.4583 6.24669 16.4583 9.58341C16.4583 12.9201 13.7533 15.6251 10.4166 15.6251C9.55548 15.6251 8.73515 15.4446 7.99252 15.1189C6.67305 15.8504 5.14977 15.7646 4.47464 15.6819C4.11162 15.6373 3.87703 15.3688 3.8087 15.088C3.74257 14.8161 3.81953 14.4975 4.06943 14.285C4.42406 13.9833 4.97164 13.4199 5.23139 12.6859C4.68756 11.7787 4.37492 10.7168 4.37492 9.58341Z" fill="#BDBDBD"/>
</svg>
