<svg width="24" height="24" viewBox="0 0 24 24" fill="none" xmlns="http://www.w3.org/2000/svg">
<path d="M5.56689 19.8511C4.15576 19.8511 3.30078 18.8716 3.30078 17.6016C3.30078 17.2114 3.40039 16.813 3.62451 16.4395L10.0659 5.2168C10.4893 4.46143 11.2363 4.07959 12 4.07959C12.7637 4.07959 13.5024 4.46143 13.9341 5.2168L20.3755 16.4395C20.583 16.8047 20.6992 17.2114 20.6992 17.6016C20.6992 18.8716 19.8442 19.8511 18.4331 19.8511H5.56689ZM5.5752 18.5479H18.4165C18.9893 18.5479 19.3545 18.0996 19.3545 17.5933C19.3545 17.4355 19.313 17.2446 19.2217 17.0703L12.7886 5.84766C12.6143 5.54053 12.3071 5.40771 12 5.40771C11.6929 5.40771 11.3774 5.54053 11.2031 5.84766L4.77002 17.062C4.67871 17.2363 4.64551 17.4355 4.64551 17.5933C4.64551 18.0996 4.99414 18.5479 5.5752 18.5479ZM12 14.2563C11.585 14.2563 11.3525 14.0156 11.3442 13.5923L11.2363 9.20947C11.228 8.78613 11.5435 8.479 11.9917 8.479C12.4316 8.479 12.7637 8.79443 12.7554 9.21777L12.6392 13.5923C12.6309 14.0239 12.3984 14.2563 12 14.2563ZM12 16.9541C11.5186 16.9541 11.1035 16.564 11.1035 16.0908C11.1035 15.6094 11.5103 15.2275 12 15.2275C12.4897 15.2275 12.8965 15.6011 12.8965 16.0908C12.8965 16.5723 12.4814 16.9541 12 16.9541Z" fill="#F24822"/>
</svg>
