<svg width="48" height="48" viewBox="0 0 48 48" fill="none" xmlns="http://www.w3.org/2000/svg">
<path fill-rule="evenodd" clip-rule="evenodd" d="M23.7095 9.5C19.8556 9.5 16.5326 12.2415 15.7791 16.0561L13.8264 25.942C13.4742 27.7255 12.703 29.3985 11.5769 30.8213L10.6314 32.0157C10.5467 32.1228 10.5 32.2565 10.5 32.3948C10.5 32.7338 10.7716 33 11.096 33H36.9141C37.2385 33 37.5101 32.7338 37.5101 32.3948C37.5101 32.2565 37.4634 32.1228 37.3787 32.0157L36.2944 30.6458C35.2779 29.3615 34.5493 27.8716 34.1581 26.2781L31.5588 15.6902C30.6654 12.0511 27.4242 9.5 23.7095 9.5ZM14.3076 15.7654C15.1985 11.2548 19.1323 8 23.7095 8C28.1213 8 31.959 11.0289 33.0155 15.3325L35.6148 25.9205C35.9548 27.3055 36.5879 28.5998 37.4706 29.7149L38.5548 31.0848C38.8499 31.4576 39.0101 31.9195 39.0101 32.3948C39.0101 33.5527 38.0765 34.5 36.9141 34.5H11.096C9.93366 34.5 9 33.5527 9 32.3948C9 31.9195 9.16018 31.4576 9.45528 31.0848L10.4007 29.8903C11.3785 28.655 12.0487 27.2015 12.3549 25.6514L14.3076 15.7654Z" fill="#BDBDBD"/>
<path fill-rule="evenodd" clip-rule="evenodd" d="M19.25 35.75C19.25 38.3734 21.3766 40.5 24 40.5C26.6234 40.5 28.75 38.3734 28.75 35.75H27.25C27.25 37.5449 25.7949 39 24 39C22.2051 39 20.75 37.5449 20.75 35.75H19.25Z" fill="#BDBDBD"/>
<path d="M6.66418 11.1519C5.5938 13.6017 5.00001 16.3074 5.00001 19.1519C5.00001 21.9963 5.5938 24.702 6.66418 27.1519" stroke="#BDBDBD" stroke-width="1.5"/>
<path d="M41.34 11.1519C42.4104 13.6017 43.0041 16.3074 43.0041 19.1519C43.0041 21.9963 42.4103 24.702 41.34 27.1519" stroke="#BDBDBD" stroke-width="1.5"/>
<path d="M45.1975 10C46.3618 12.8203 47.0041 15.9111 47.0041 19.1518C47.0041 22.3926 46.3618 25.4833 45.1975 28.3037" stroke="#BDBDBD" stroke-width="1.5"/>
<path d="M2.80664 10C1.64235 12.8203 1.00002 15.9111 1.00002 19.1518C1.00002 22.3926 1.64235 25.4833 2.80664 28.3037" stroke="#BDBDBD" stroke-width="1.5"/>
</svg>
