<svg width="24" height="24" viewBox="0 0 24 24" fill="none" xmlns="http://www.w3.org/2000/svg">
<path d="M11.9917 12.0068C10.0244 12.0068 8.40576 10.2554 8.40576 8.11377C8.40576 5.98877 10.0078 4.32031 11.9917 4.32031C13.9673 4.32031 15.5859 6.02197 15.5776 8.13037C15.5776 10.2637 13.9673 12.0068 11.9917 12.0068ZM11.9917 10.7534C13.2119 10.7534 14.2412 9.59961 14.2412 8.13037C14.2495 6.68604 13.2285 5.57373 11.9917 5.57373C10.7549 5.57373 9.74219 6.66113 9.74219 8.11377C9.74219 9.58301 10.7715 10.7534 11.9917 10.7534ZM13.9341 19.6934H6.78711C5.40088 19.6934 4.74512 19.2783 4.74512 18.3652C4.74512 16.1904 7.49268 13.0444 12 13.0444C13.5024 13.0444 14.8057 13.3931 15.8765 13.9575C15.5278 14.2314 15.2124 14.5469 14.9385 14.9121C14.125 14.5303 13.1372 14.2979 12 14.2979C8.18994 14.2979 6.08154 16.8379 6.08154 18.2075C6.08154 18.3818 6.17285 18.4399 6.38867 18.4399H13.7349C13.7432 18.8716 13.8096 19.2866 13.9341 19.6934ZM19.0889 22.4575C16.7729 22.4575 14.8721 20.5566 14.8721 18.2407C14.8721 15.9248 16.7729 14.0239 19.0889 14.0239C21.3965 14.0239 23.3057 15.9248 23.3057 18.2407C23.3057 20.54 21.3716 22.4575 19.0889 22.4575ZM19.0889 20.8804C19.396 20.8804 19.5952 20.6729 19.5952 20.374V18.7471H21.2139C21.521 18.7471 21.7285 18.5479 21.7285 18.2407C21.7285 17.9253 21.521 17.7261 21.2139 17.7261H19.5952V16.1074C19.5952 15.8086 19.396 15.6011 19.0889 15.6011C18.7734 15.6011 18.5742 15.8086 18.5742 16.1074V17.7261H16.9556C16.6484 17.7261 16.4492 17.9253 16.4492 18.2407C16.4492 18.5479 16.6484 18.7471 16.9556 18.7471H18.5742V20.374C18.5742 20.6729 18.7734 20.8804 19.0889 20.8804Z" fill="#212121"/>
</svg>
