<svg width="20" height="19" viewBox="0 0 20 19" fill="none" xmlns="http://www.w3.org/2000/svg">
    <path
        d="M7.9917 8.00684C6.02441 8.00684 4.40576 6.25537 4.40576 4.11377C4.40576 1.98877 6.00781 0.320312 7.9917 0.320312C9.96729 0.320312 11.5859 2.02197 11.5776 4.13037C11.5776 6.26367 9.96729 8.00684 7.9917 8.00684ZM7.9917 6.75342C9.21191 6.75342 10.2412 5.59961 10.2412 4.13037C10.2495 2.68604 9.22852 1.57373 7.9917 1.57373C6.75488 1.57373 5.74219 2.66113 5.74219 4.11377C5.74219 5.58301 6.77148 6.75342 7.9917 6.75342ZM9.93408 15.6934H2.78711C1.40088 15.6934 0.745117 15.2783 0.745117 14.3652C0.745117 12.1904 3.49268 9.04443 8 9.04443C9.50244 9.04443 10.8057 9.39307 11.8765 9.95752C11.5278 10.2314 11.2124 10.5469 10.9385 10.9121C10.125 10.5303 9.13721 10.2979 8 10.2979C4.18994 10.2979 2.08154 12.8379 2.08154 14.2075C2.08154 14.3818 2.17285 14.4399 2.38867 14.4399H9.73486C9.74316 14.8716 9.80957 15.2866 9.93408 15.6934ZM15.0889 18.4575C12.7729 18.4575 10.8721 16.5566 10.8721 14.2407C10.8721 11.9248 12.7729 10.0239 15.0889 10.0239C17.3965 10.0239 19.3057 11.9248 19.3057 14.2407C19.3057 16.54 17.3716 18.4575 15.0889 18.4575ZM15.0889 16.8804C15.396 16.8804 15.5952 16.6729 15.5952 16.374V14.7471H17.2139C17.521 14.7471 17.7285 14.5479 17.7285 14.2407C17.7285 13.9253 17.521 13.7261 17.2139 13.7261H15.5952V12.1074C15.5952 11.8086 15.396 11.6011 15.0889 11.6011C14.7734 11.6011 14.5742 11.8086 14.5742 12.1074V13.7261H12.9556C12.6484 13.7261 12.4492 13.9253 12.4492 14.2407C12.4492 14.5479 12.6484 14.7471 12.9556 14.7471H14.5742V16.374C14.5742 16.6729 14.7734 16.8804 15.0889 16.8804Z"
        fill="#212121" />
</svg>