<svg width="24" height="24" viewBox="0 0 24 24" fill="none" xmlns="http://www.w3.org/2000/svg">
<path d="M12.5293 20.8804C11.8901 20.8804 11.4004 20.4902 11.251 19.876L10.8857 18.3237L10.6201 18.2324L9.27539 19.0625C8.73584 19.4028 8.10498 19.3198 7.64844 18.8633L6.49463 17.7095C6.03809 17.2529 5.94678 16.6221 6.29541 16.0908L7.13379 14.7461L7.04248 14.4971L5.49023 14.1318C4.88428 13.9824 4.48584 13.4844 4.48584 12.8535V11.21C4.48584 10.5791 4.87598 10.0811 5.49023 9.93164L7.02588 9.55811L7.12549 9.29248L6.28711 7.94775C5.93848 7.4165 6.02979 6.79395 6.48633 6.3291L7.64014 5.16699C8.08838 4.71875 8.71924 4.63574 9.25879 4.96777L10.6035 5.79785L10.8857 5.68994L11.251 4.1377C11.4004 3.52344 11.8901 3.1333 12.5293 3.1333H14.2061C14.8452 3.1333 15.335 3.52344 15.4844 4.1377L15.8413 5.68994L16.1235 5.79785L17.4766 4.96777C18.0161 4.63574 18.6387 4.71875 19.0869 5.16699L20.249 6.3291C20.7056 6.79395 20.7886 7.4165 20.4482 7.94775L19.6016 9.29248L19.7095 9.55811L21.2451 9.93164C21.8594 10.0811 22.2495 10.5791 22.2495 11.21V12.8535C22.2495 13.4844 21.8511 13.9824 21.2451 14.1318L19.6929 14.4971L19.5933 14.7461L20.4399 16.0908C20.7803 16.6221 20.6973 17.2529 20.2407 17.7095L19.0786 18.8633C18.6221 19.3198 17.9995 19.4028 17.46 19.0625L16.1069 18.2324L15.8413 18.3237L15.4844 19.876C15.335 20.4902 14.8452 20.8804 14.2061 20.8804H12.5293ZM12.6621 19.5854H14.0732C14.2144 19.5854 14.2891 19.5273 14.3057 19.3945L14.812 17.3359C15.3184 17.2114 15.7832 17.0122 16.1401 16.7881L17.9497 17.9004C18.0576 17.9751 18.1572 17.9585 18.2651 17.8589L19.2363 16.8794C19.3359 16.7881 19.3359 16.6885 19.2695 16.5723L18.1572 14.7793C18.3564 14.4307 18.564 13.9575 18.6968 13.4512L20.7637 12.9614C20.8882 12.9365 20.9546 12.8618 20.9546 12.7207V11.3345C20.9546 11.1851 20.8965 11.1187 20.7637 11.0938L18.7051 10.5957C18.5723 10.0562 18.3315 9.56641 18.1738 9.25928L19.2778 7.46631C19.3525 7.3418 19.3525 7.24219 19.2529 7.14258L18.2734 6.17969C18.1655 6.08008 18.0825 6.06348 17.9497 6.13818L16.1484 7.23389C15.7749 7.03467 15.3267 6.82715 14.812 6.69434L14.3057 4.61914C14.2891 4.48633 14.2144 4.42822 14.0732 4.42822H12.6621C12.521 4.42822 12.4463 4.48633 12.4214 4.61914L11.9316 6.67773C11.4336 6.81885 10.9272 7.02637 10.5703 7.22559L8.77734 6.13818C8.65283 6.06348 8.56152 6.08008 8.46191 6.17969L7.47412 7.14258C7.38281 7.24219 7.37451 7.3418 7.44922 7.46631L8.55322 9.25928C8.40381 9.56641 8.15479 10.0562 8.02197 10.5957L5.97168 11.0938C5.83057 11.1187 5.78076 11.1851 5.78076 11.3345V12.7207C5.78076 12.8618 5.83887 12.9365 5.97168 12.9614L8.03027 13.4512C8.16309 13.9575 8.37891 14.4307 8.56982 14.7793L7.45752 16.5723C7.39111 16.6885 7.39941 16.7881 7.49072 16.8794L8.47021 17.8589C8.56982 17.9585 8.67773 17.9751 8.77734 17.9004L10.5869 16.7881C10.9438 17.0122 11.417 17.2114 11.9233 17.3359L12.4214 19.3945C12.4463 19.5273 12.521 19.5854 12.6621 19.5854ZM13.3677 15.1777C11.6245 15.1777 10.1968 13.7417 10.1968 12.0068C10.1968 10.2803 11.6328 8.85254 13.3677 8.85254C15.1025 8.85254 16.5303 10.2803 16.5303 12.0068C16.5303 13.75 15.1025 15.1777 13.3677 15.1777ZM13.3677 13.8911C14.3804 13.8911 15.2271 13.0361 15.2271 12.0068C15.2271 10.9858 14.3804 10.1392 13.3677 10.1392C12.3384 10.1392 11.4917 10.9858 11.4917 12.0068C11.4917 13.0444 12.3384 13.8911 13.3677 13.8911Z" fill="#212121"/>
</svg>
