<svg width="20" height="20" viewBox="0 0 20 20" fill="none" xmlns="http://www.w3.org/2000/svg">
<path fill-rule="evenodd" clip-rule="evenodd" d="M8.70374 6.29627C7.8088 5.40133 6.35778 5.40133 5.46283 6.29627C4.56789 7.19121 4.56789 8.64223 5.46283 9.53717L10.0296 14.1039L14.5963 9.53717C15.4912 8.64223 15.4912 7.19121 14.5963 6.29627C13.7014 5.40133 12.2503 5.40133 11.3554 6.29627L10.0296 7.62209L8.70374 6.29627ZM4.57895 5.41239C5.96205 4.02929 8.20452 4.02929 9.58762 5.41239L10.0296 5.85433L10.4715 5.41239C11.8546 4.02929 14.0971 4.02929 15.4802 5.41239C16.8633 6.79548 16.8633 9.03796 15.4802 10.4211L10.0296 15.8717L4.57895 10.4211C3.19585 9.03796 3.19585 6.79548 4.57895 5.41239Z" fill="#BDBDBD"/>
</svg>
