<svg width="24" height="24" viewBox="0 0 24 24" fill="none" xmlns="http://www.w3.org/2000/svg">
<path d="M12.2344 20.6313C8.72314 20.6313 6.36572 18.2739 6.36572 14.3892V7.25879C6.36572 6.3208 6.96338 5.68994 7.82666 5.68994C8.17529 5.68994 8.51562 5.81445 8.73975 6.04688V5.12549C8.73975 4.2041 9.3125 3.59814 10.1758 3.59814C10.4746 3.59814 10.7734 3.71436 10.981 3.92188C11.1055 3.1001 11.6699 2.56055 12.4751 2.56055C13.2969 2.56055 13.8447 3.0835 13.9526 3.93848C14.1851 3.72266 14.4922 3.59814 14.8325 3.59814C15.7622 3.59814 16.3682 4.2124 16.3682 5.18359V11.8408C16.3682 11.8823 16.3848 11.9155 16.4263 11.9155C16.4595 11.9155 16.4844 11.8906 16.501 11.8574L17.0405 10.5293C17.3228 9.87354 17.8374 9.5332 18.4102 9.5332C19.2568 9.5332 19.9209 10.1475 19.9209 11.0273C19.9209 11.2764 19.8711 11.5503 19.7715 11.8325L18.3105 15.9414C17.2065 19.0542 15.1479 20.6313 12.2344 20.6313ZM12.1929 19.4858C14.5088 19.4858 16.2852 18.415 17.2979 15.5845L18.8169 11.3428C18.9663 10.936 18.8667 10.6289 18.543 10.5127C18.2524 10.4048 17.9453 10.5293 17.7876 10.8862L16.5923 13.5508C16.4014 13.9658 16.1523 14.0986 15.8535 14.0986C15.5049 14.0986 15.2642 13.8579 15.2642 13.4429V5.2749C15.2642 4.91797 15.0234 4.66895 14.6831 4.66895C14.3428 4.66895 14.1021 4.91797 14.1021 5.2749V11.1934C14.1021 11.4839 13.853 11.708 13.5708 11.708C13.2803 11.708 13.0479 11.4839 13.0479 11.1934V4.24561C13.0479 3.88867 12.8071 3.63135 12.4751 3.63135C12.1265 3.63135 11.8857 3.88867 11.8857 4.24561V11.1934C11.8857 11.5005 11.6367 11.708 11.3545 11.708C11.0806 11.708 10.8315 11.5005 10.8315 11.1934V5.2749C10.8315 4.91797 10.5908 4.66895 10.2422 4.66895C9.90186 4.66895 9.67773 4.91797 9.67773 5.2749V11.6167C9.67773 11.9238 9.42041 12.1313 9.13818 12.1313C8.87256 12.1313 8.62354 11.9238 8.62354 11.6167V7.375C8.62354 7.01807 8.37451 6.77734 8.03418 6.77734C7.68555 6.77734 7.46143 7.01807 7.46143 7.375V14.2563C7.46143 17.5933 9.25439 19.4858 12.1929 19.4858Z" fill="#F24822"/>
</svg>
