<svg width="25" height="24" viewBox="0 0 25 24" fill="none" xmlns="http://www.w3.org/2000/svg">
<mask id="path-1-inside-1_7558_10359" fill="white">
<path d="M21.9286 18.8769V10.8437C21.9286 9.78819 21.4629 8.7864 20.656 8.10591L14.1491 2.61866C13.1965 1.81527 11.8035 1.81526 10.8508 2.61866L4.34398 8.10591C3.53705 8.78639 3.07141 9.78819 3.07141 10.8437V18.8769C3.07141 20.2897 4.21673 21.4351 5.62955 21.4351H19.3704C20.7832 21.4351 21.9286 20.2897 21.9286 18.8769Z"/>
</mask>
<path d="M20.656 8.10591L21.623 6.95922L20.656 8.10591ZM14.1491 2.61866L13.1821 3.76535L14.1491 2.61866ZM10.8508 2.61866L11.8178 3.76535V3.76535L10.8508 2.61866ZM4.34398 8.10591L3.37697 6.95922H3.37697L4.34398 8.10591ZM20.4286 10.8437V18.8769H23.4286V10.8437H20.4286ZM19.689 9.2526C20.1579 9.64808 20.4286 10.2303 20.4286 10.8437H23.4286C23.4286 9.34609 22.7679 7.92472 21.623 6.95922L19.689 9.2526ZM13.1821 3.76535L19.689 9.2526L21.623 6.95922L15.1162 1.47197L13.1821 3.76535ZM11.8178 3.76535C12.2119 3.43303 12.7881 3.43304 13.1821 3.76535L15.1162 1.47197C13.6049 0.197497 11.3951 0.197491 9.88381 1.47197L11.8178 3.76535ZM5.31099 9.2526L11.8178 3.76535L9.88381 1.47197L3.37697 6.95922L5.31099 9.2526ZM4.57141 10.8437C4.57141 10.2303 4.84203 9.64808 5.31099 9.2526L3.37697 6.95922C2.23208 7.92471 1.57141 9.34609 1.57141 10.8437H4.57141ZM4.57141 18.8769V10.8437H1.57141V18.8769H4.57141ZM5.62955 19.9351C5.04516 19.9351 4.57141 19.4613 4.57141 18.8769H1.57141C1.57141 21.1182 3.3883 22.9351 5.62955 22.9351V19.9351ZM19.3704 19.9351H5.62955V22.9351H19.3704V19.9351ZM20.4286 18.8769C20.4286 19.4613 19.9548 19.9351 19.3704 19.9351V22.9351C21.6117 22.9351 23.4286 21.1182 23.4286 18.8769H20.4286Z" fill="#333333" mask="url(#path-1-inside-1_7558_10359)"/>
<path d="M9.92859 13.2859C9.92859 12.1025 10.888 11.1431 12.0714 11.1431H12.9286C14.1121 11.1431 15.0714 12.1025 15.0714 13.2859V14.1431C15.0714 15.3265 14.1121 16.2859 12.9286 16.2859H12.0714C10.888 16.2859 9.92859 15.3265 9.92859 14.1431V13.2859Z" stroke="#333333" stroke-width="1.5"/>
</svg>
