<svg width="25" height="24" viewBox="0 0 25 24" fill="none" xmlns="http://www.w3.org/2000/svg">
<path fill-rule="evenodd" clip-rule="evenodd" d="M4.34398 8.10579L10.8508 2.61854C11.8035 1.81514 13.1965 1.81514 14.1491 2.61854L20.656 8.10579C21.4629 8.78627 21.9286 9.78807 21.9286 10.8436V18.8768C21.9286 20.2896 20.7832 21.4349 19.3704 21.4349H5.62955C4.21673 21.4349 3.07141 20.2896 3.07141 18.8768V10.8436C3.07141 9.78807 3.53705 8.78627 4.34398 8.10579ZM12.0714 10.3928C10.4737 10.3928 9.17855 11.688 9.17855 13.2857V14.1428C9.17855 15.7405 10.4737 17.0357 12.0714 17.0357H12.9286C14.5262 17.0357 15.8214 15.7405 15.8214 14.1428V13.2857C15.8214 11.688 14.5262 10.3928 12.9286 10.3928H12.0714Z" fill="#333333"/>
</svg>
