<svg width="16" height="16" viewBox="0 0 16 16" fill="none" xmlns="http://www.w3.org/2000/svg">
<path fill-rule="evenodd" clip-rule="evenodd" d="M3.85981 2C3.4953 2 3.19981 2.26863 3.19981 2.6C3.19981 2.93137 3.4953 3.2 3.85981 3.2H12.1398C12.5043 3.2 12.7998 2.93137 12.7998 2.6C12.7998 2.26863 12.5043 2 12.1398 2H3.85981ZM1.9998 12L1.9998 5.6C1.9998 5.37909 2.17889 5.2 2.3998 5.2L13.5998 5.2C13.8207 5.2 13.9998 5.37909 13.9998 5.6V12C13.9998 12.2209 13.8207 12.4 13.5998 12.4L2.3998 12.4C2.17889 12.4 1.9998 12.2209 1.9998 12ZM2.3998 13.6C1.51615 13.6 0.799805 12.8837 0.799805 12L0.799805 5.6C0.799805 4.71635 1.51615 4 2.3998 4L13.5998 4C14.4835 4 15.1998 4.71634 15.1998 5.6L15.1998 12C15.1998 12.8837 14.4835 13.6 13.5998 13.6L2.3998 13.6Z" fill="#333333"/>
</svg>
