<svg width="25" height="24" viewBox="0 0 25 24" fill="none" xmlns="http://www.w3.org/2000/svg">
<path fill-rule="evenodd" clip-rule="evenodd" d="M12.3393 2.25C9.33184 2.25 6.74322 4.37453 6.15663 7.32423L5.09501 12.6626C4.96272 13.3279 4.67311 13.9519 4.25039 14.4823L3.7364 15.1273C3.42148 15.5225 3.25 16.0129 3.25 16.5182C3.25 17.7508 4.24921 18.75 5.4818 18.75H7.80888C8.16846 21.017 10.1318 22.75 12.5 22.75C14.8682 22.75 16.8315 21.017 17.1911 18.75H19.5182C20.7508 18.75 21.75 17.7508 21.75 16.5182C21.75 16.0129 21.5785 15.5225 21.2636 15.1273L20.6741 14.3876C20.2925 13.9088 20.0189 13.3531 19.872 12.7587L18.4589 7.04122C17.7633 4.22704 15.2382 2.25 12.3393 2.25ZM15.663 18.75H9.33697C9.67555 20.1833 10.9632 21.25 12.5 21.25C14.0368 21.25 15.3245 20.1833 15.663 18.75Z" fill="#333333"/>
</svg>
