<svg width="18" height="14" viewBox="0 0 18 14" fill="none" xmlns="http://www.w3.org/2000/svg">
<path d="M1.5957 3.36279C1.35498 3.53711 1.08936 3.35449 1.18896 3.08057L1.46289 2.23389L0.757324 1.71094C0.533203 1.54492 0.624512 1.23779 0.898438 1.23779H1.77832L2.06885 0.333008C2.14355 0.0922852 2.46729 0.0922852 2.54199 0.333008L2.83252 1.23779H3.7041C3.97803 1.23779 4.06104 1.54492 3.84521 1.71094L3.14795 2.23389L3.42188 3.08057C3.51318 3.35449 3.24756 3.54541 2.99854 3.36279L2.30957 2.83984L1.5957 3.36279ZM6.24414 2.66553C5.87061 2.66553 5.57178 2.375 5.57178 2.00146C5.57178 1.61963 5.87061 1.3291 6.24414 1.3291H16.6948C17.0684 1.3291 17.3589 1.61963 17.3589 2.00146C17.3589 2.375 17.0684 2.66553 16.6948 2.66553H6.24414ZM1.5957 8.36816C1.35498 8.54248 1.09766 8.35986 1.18896 8.08594L1.46289 7.23926L0.757324 6.71631C0.533203 6.55029 0.624512 6.25146 0.898438 6.25146H1.77832L2.06885 5.33838C2.14355 5.10596 2.46729 5.10596 2.54199 5.33838L2.83252 6.25146H3.7041C3.97803 6.25146 4.06104 6.55029 3.84521 6.71631L3.14795 7.23926L3.42188 8.08594C3.51318 8.35986 3.24756 8.55908 2.99854 8.36816L2.30957 7.84521L1.5957 8.36816ZM6.24414 7.6875C5.87061 7.6875 5.57178 7.38867 5.57178 7.01514C5.57178 6.6416 5.87061 6.35107 6.24414 6.35107H16.6948C17.0684 6.35107 17.3589 6.6416 17.3589 7.01514C17.3589 7.38867 17.0684 7.6875 16.6948 7.6875H6.24414ZM1.5957 13.3984C1.35498 13.5728 1.09766 13.3901 1.18896 13.1162L1.46289 12.2695L0.757324 11.7466C0.533203 11.5806 0.624512 11.2817 0.898438 11.2817H1.77832L2.06885 10.3687C2.14355 10.1279 2.46729 10.1362 2.54199 10.3687L2.83252 11.2817H3.7041C3.97803 11.2817 4.06104 11.5806 3.84521 11.7466L3.14795 12.2695L3.42188 13.1162C3.51318 13.3901 3.24756 13.5894 2.99854 13.3984L2.30957 12.8755L1.5957 13.3984ZM6.24414 12.7012C5.87061 12.7012 5.57178 12.4106 5.57178 12.0371C5.57178 11.6553 5.87061 11.3647 6.24414 11.3647H16.6948C17.0684 11.3647 17.3589 11.6553 17.3589 12.0371C17.3589 12.4106 17.0684 12.7012 16.6948 12.7012H6.24414Z" fill="#212121"/>
</svg>
