<svg width="24" height="24" viewBox="0 0 24 24" fill="none" xmlns="http://www.w3.org/2000/svg">
<path d="M20.4831 5.3823L20.483 5.33247L20.4762 5.28309C20.3207 4.14312 19.4283 3.25077 18.2884 3.09524L18.239 3.08851L18.1892 3.08836L12.3433 3.07149C11.5556 2.98078 10.7678 3.25776 10.2055 3.82L3.88282 10.1427C2.87553 11.15 2.85481 12.7862 3.86581 13.7972L9.77425 19.7057C10.7853 20.7167 12.4215 20.6959 13.4288 19.6886L19.7515 13.3659C20.3137 12.8037 20.5907 12.0159 20.5 11.2282L20.4831 5.3823Z" stroke="#333333" stroke-width="1.5"/>
<path fill-rule="evenodd" clip-rule="evenodd" d="M16.3421 7.22929C15.9237 6.81087 15.2453 6.81087 14.8269 7.22929C14.4084 7.64771 14.4084 8.3261 14.8269 8.74452C15.2453 9.16294 15.9237 9.16294 16.3421 8.74452C16.7605 8.3261 16.7605 7.64771 16.3421 7.22929ZM13.9177 6.32015C14.8382 5.39963 16.3307 5.39963 17.2512 6.32015C18.1717 7.24067 18.1717 8.73313 17.2512 9.65366C16.3307 10.5742 14.8382 10.5742 13.9177 9.65366C12.9972 8.73313 12.9972 7.24067 13.9177 6.32015Z" fill="#333333"/>
</svg>
