<svg width="28" height="28" viewBox="0 0 28 28" fill="none" xmlns="http://www.w3.org/2000/svg">
<path fill-rule="evenodd" clip-rule="evenodd" d="M23.0418 13.1552L23.022 6.28188C22.8937 5.34129 22.1588 4.60642 21.2182 4.47809L14.3448 4.45825C13.6787 4.36737 13.0046 4.59601 12.5252 5.07539L5.14869 12.4519C4.30756 13.293 4.29868 14.6479 5.12885 15.478L12.022 22.3712C12.8522 23.2014 14.2071 23.1925 15.0482 22.3514L15.2513 22.1483C15.4115 22.6592 15.6444 23.1381 15.9377 23.5727C14.5148 24.8263 12.3341 24.8046 10.9614 23.4319L4.06819 16.5387C2.63916 15.1097 2.67427 12.805 4.08803 11.3912L11.4645 4.01473C12.2456 3.23368 13.3378 2.84324 14.4357 2.95851L21.3222 2.97839L21.4209 2.99186C23.029 3.21125 24.2888 4.47103 24.5082 6.07912L24.5217 6.17788L24.5416 13.0644C24.6522 14.1185 24.2967 15.1673 23.577 15.9406C23.1412 15.6459 22.6609 15.4121 22.1483 15.2513L22.4247 14.9749C22.9041 14.4955 23.1327 13.8213 23.0418 13.1552ZM19.0658 8.43414C18.5776 7.94598 17.7862 7.94598 17.298 8.43414C16.8098 8.9223 16.8098 9.71375 17.298 10.2019C17.7862 10.6901 18.5776 10.6901 19.0658 10.2019C19.5539 9.71375 19.5539 8.9223 19.0658 8.43414ZM16.2373 7.37348C17.3113 6.29954 19.0525 6.29954 20.1264 7.37348C21.2004 8.44742 21.2004 10.1886 20.1264 11.2626C19.0525 12.3365 17.3113 12.3365 16.2373 11.2626C15.1634 10.1886 15.1634 8.44742 16.2373 7.37348ZM23 24.0607L20.5303 21.591L18.0607 24.0607L17 23L19.4697 20.5303L17 18.0607L18.0607 17L20.5303 19.4697L23 17L24.0607 18.0607L21.591 20.5303L24.0607 23L23 24.0607Z" fill="#333333"/>
</svg>
