<svg width="24" height="24" viewBox="0 0 24 24" fill="none" xmlns="http://www.w3.org/2000/svg">
<path d="M12.9526 20.4736C8.3291 20.4736 4.48584 16.6304 4.48584 12.0068C4.48584 7.375 8.3208 3.54004 12.9443 3.54004C17.5762 3.54004 21.4194 7.375 21.4194 12.0068C21.4194 16.6304 17.5845 20.4736 12.9526 20.4736ZM12.9526 19.0625C16.8706 19.0625 20.0083 15.9248 20.0083 12.0068C20.0083 8.08887 16.8623 4.95117 12.9443 4.95117C9.02637 4.95117 5.90527 8.08887 5.90527 12.0068C5.90527 15.9248 9.03467 19.0625 12.9526 19.0625ZM11.4004 15.2524C11.0103 15.4849 10.5703 15.2939 10.5703 14.8955V9.12646C10.5703 8.71973 11.0435 8.56201 11.4004 8.76953L16.1235 11.5669C16.4639 11.7744 16.4722 12.2559 16.1235 12.4551L11.4004 15.2524Z" fill="#212121"/>
</svg>
