<svg width="24" height="24" viewBox="0 0 24 24" fill="none" xmlns="http://www.w3.org/2000/svg">
<path d="M14.7539 19.6187C14.1895 19.6187 13.7744 19.2036 13.7744 18.6475V15.4766H13.5337C10.3213 15.4766 8.2876 16.29 6.84326 19.0044C6.55273 19.5356 6.1709 19.6187 5.82227 19.6187C5.37402 19.6187 4.96729 19.2202 4.96729 18.5063C4.96729 12.3721 7.56543 8.54541 13.5337 8.54541H13.7744V5.40771C13.7744 4.85156 14.1895 4.39502 14.7705 4.39502C15.1772 4.39502 15.4512 4.56934 15.8911 4.98438L22.4404 11.1104C22.7642 11.4175 22.8638 11.7246 22.8638 12.0068C22.8638 12.2808 22.7559 12.5962 22.4404 12.895L15.8911 19.0791C15.4927 19.4526 15.1606 19.6187 14.7539 19.6187ZM15.2271 17.834C15.2769 17.834 15.3267 17.8091 15.3682 17.7593L21.2866 12.1646C21.353 12.0981 21.3696 12.0566 21.3696 12.0068C21.3696 11.957 21.3447 11.9072 21.2866 11.8491L15.3765 6.17969C15.335 6.14648 15.2852 6.11328 15.2354 6.11328C15.1606 6.11328 15.1108 6.16309 15.1108 6.22949V9.5249C15.1108 9.71582 15.0278 9.79883 14.8369 9.79883H13.7246C8.02197 9.79883 6.31201 13.75 6.146 17.668C6.146 17.7344 6.1709 17.7593 6.2041 17.7593C6.24561 17.7593 6.26221 17.7344 6.28711 17.6763C7.2666 15.5928 9.78174 14.2231 13.7246 14.2231H14.8369C15.0278 14.2231 15.1108 14.3062 15.1108 14.4971V17.7095C15.1108 17.7842 15.1606 17.834 15.2271 17.834Z" fill="#212121"/>
</svg>
