<svg width="17" height="16" viewBox="0 0 17 16" fill="none" xmlns="http://www.w3.org/2000/svg">
<path d="M6.8833 12.8767C8.26953 12.8767 9.54785 12.4285 10.5938 11.6814L14.5283 15.616C14.7109 15.7986 14.9517 15.8899 15.209 15.8899C15.7485 15.8899 16.1304 15.4749 16.1304 14.9436C16.1304 14.6946 16.0474 14.4539 15.8647 14.2795L11.9551 10.3616C12.7769 9.28247 13.2666 7.94604 13.2666 6.49341C13.2666 2.98218 10.3945 0.110107 6.8833 0.110107C3.38037 0.110107 0.5 2.97388 0.5 6.49341C0.5 10.0046 3.37207 12.8767 6.8833 12.8767ZM6.8833 11.4988C4.14404 11.4988 1.87793 9.23267 1.87793 6.49341C1.87793 3.75415 4.14404 1.48804 6.8833 1.48804C9.62256 1.48804 11.8887 3.75415 11.8887 6.49341C11.8887 9.23267 9.62256 11.4988 6.8833 11.4988Z" fill="#BDBDBD"/>
</svg>
