<svg width="24" height="24" viewBox="0 0 24 24" fill="none" xmlns="http://www.w3.org/2000/svg">
<path d="M8.69824 20.5151C7.49463 20.5151 6.71436 19.7515 6.65625 18.5645L6.0752 6.48682H5.0874C4.75537 6.48682 4.46484 6.20459 4.46484 5.85596C4.46484 5.51562 4.75537 5.2334 5.0874 5.2334H8.85596V3.96338C8.85596 2.75977 9.63623 2.0293 10.9146 2.0293H14.0688C15.3472 2.0293 16.1274 2.75977 16.1274 3.96338V5.2334H19.9209C20.2612 5.2334 20.5352 5.51562 20.5352 5.85596C20.5352 6.19629 20.2612 6.48682 19.9209 6.48682H18.9248L18.3521 18.5562C18.2939 19.7432 17.4971 20.5151 16.3101 20.5151H8.69824ZM10.1758 4.04639V5.2334H14.8076V4.04639C14.8076 3.57324 14.4756 3.26611 13.9775 3.26611H11.0059C10.5078 3.26611 10.1758 3.57324 10.1758 4.04639ZM8.81445 19.2617H16.1772C16.667 19.2617 17.0239 18.9131 17.0405 18.415L17.5884 6.48682H7.37842L7.95947 18.415C7.98438 18.9048 8.34131 19.2617 8.81445 19.2617ZM10.043 17.8423C9.73584 17.8423 9.52832 17.6514 9.52002 17.3525L9.271 8.479C9.2627 8.18848 9.47021 7.98926 9.78564 7.98926C10.0845 7.98926 10.292 8.18018 10.3003 8.4707L10.5576 17.3525C10.5659 17.6431 10.3584 17.8423 10.043 17.8423ZM12.5 17.8423C12.1846 17.8423 11.9688 17.6431 11.9688 17.3525V8.479C11.9688 8.18848 12.1846 7.98926 12.5 7.98926C12.8154 7.98926 13.0396 8.18848 13.0396 8.479V17.3525C13.0396 17.6431 12.8154 17.8423 12.5 17.8423ZM14.9653 17.8423C14.6499 17.8423 14.4424 17.6431 14.4507 17.3525L14.6997 8.479C14.708 8.18018 14.9155 7.98926 15.2144 7.98926C15.5298 7.98926 15.7373 8.18848 15.729 8.479L15.48 17.3525C15.4717 17.6514 15.2642 17.8423 14.9653 17.8423Z" fill="#F24822"/>
</svg>
