<svg width="16" height="16" viewBox="0 0 16 16" fill="none" xmlns="http://www.w3.org/2000/svg">
<path fill-rule="evenodd" clip-rule="evenodd" d="M3.86005 2C3.49554 2 3.20005 2.26863 3.20005 2.6C3.20005 2.93137 3.49554 3.2 3.86005 3.2H12.14C12.5046 3.2 12.8 2.93137 12.8 2.6C12.8 2.26863 12.5046 2 12.14 2H3.86005ZM2.00005 12L2.00005 5.6C2.00005 5.37909 2.17913 5.2 2.40005 5.2L13.6 5.2C13.821 5.2 14 5.37909 14 5.6V12C14 12.2209 13.821 12.4 13.6 12.4L2.40005 12.4C2.17914 12.4 2.00005 12.2209 2.00005 12ZM2.40005 13.6C1.51639 13.6 0.800049 12.8837 0.800049 12L0.800049 5.6C0.800049 4.71635 1.51639 4 2.40005 4L13.6 4C14.4837 4 15.2 4.71634 15.2 5.6L15.2 12C15.2 12.8837 14.4837 13.6 13.6 13.6L2.40005 13.6Z" fill="#333333"/>
</svg>
