<svg width="72" height="72" viewBox="0 0 72 72" fill="none" xmlns="http://www.w3.org/2000/svg">
<g clip-path="url(#clip0_5621_12446)">
<path d="M8.52014 19.638L42.8101 22.08C42.8101 22.08 37.3321 42.438 48.3181 67.8L14.2681 70.482C14.2681 70.482 5.23814 47.808 8.52014 19.638Z" fill="#DB4437"/>
<path d="M45.1621 59.334L21.6001 60.816L30.4201 69.216L48.3181 67.8C48.3181 67.8 45.6001 61.2 45.1621 59.334Z" fill="#AF362C"/>
<path d="M19.1401 10.8L53.4301 13.2C53.4301 13.2 50.6341 38.514 55.7581 58.65L21.6001 60.816C21.6001 60.816 14.8681 40.434 19.1401 10.8Z" fill="#F4B400"/>
<path d="M55.7641 58.674C55.7641 58.674 54.3301 52.752 54.1081 50.4C53.8861 48.048 30.3781 51.834 30.3781 51.834L39.2821 59.706L55.7641 58.674Z" fill="black" fill-opacity="0.2"/>
<path d="M30.3782 1.80002L64.6742 4.24202C64.6742 4.24202 59.5502 29.628 64.6742 49.764L30.3782 51.834C30.3782 51.834 26.1062 31.458 30.3782 1.80002Z" fill="#3390EC"/>
</g>
<defs>
<clipPath id="clip0_5621_12446">
<rect width="56.874" height="68.712" fill="white" transform="translate(7.80005 1.80002)"/>
</clipPath>
</defs>
</svg>
