<svg width="144" height="144" viewBox="0 0 144 144" fill="none" xmlns="http://www.w3.org/2000/svg">
<path d="M57.4643 43.4514C48.29 46.2385 29.5931 55.7612 21.1156 63.658V141.001L45.2707 129.852C52.9352 126.252 57.2321 118.936 57.4643 114.058C57.4643 113.826 57.4643 43.4514 57.4643 43.4514Z" fill="url(#paint0_linear_5913_20234)"/>
<path d="M71.8645 104.304C99.8518 104.304 122.613 81.5421 122.613 53.7871C122.613 37.2966 113.439 21.7352 101.362 12.7932C106.587 37.5289 92.4195 55.7613 91.8388 56.5742C82.8968 67.9549 70.9354 73.1808 70.9354 73.1808L62.5741 104.188C62.4579 104.304 71.8645 104.304 71.8645 104.304Z" fill="url(#paint1_linear_5913_20234)"/>
<path d="M34.7026 134.728C38.5349 132.522 39.9285 131.128 42.0188 129.038C47.2447 123.812 50.3802 111.154 50.3802 111.154L57.4641 113.825C57.4641 124.161 45.735 129.619 45.735 129.619L34.7026 134.728Z" fill="url(#paint2_linear_5913_20234)"/>
<path d="M26.3417 54.1347C24.4836 55.5282 22.7417 56.9218 21.1158 58.5476V53.6702C21.1158 27.3086 41.2063 5.36005 67.3356 3.15357C78.2518 2.34066 88.4713 4.77939 96.9488 9.88912C101.362 28.7022 95.0907 44.9604 91.0261 51.1153C90.2132 48.0959 75.2325 34.2764 61.1807 35.0893C60.0194 35.0893 57.5807 36.4829 57.5807 38.9216C54.2129 39.9668 38.187 45.6572 26.3417 54.1347Z" fill="url(#paint3_linear_5913_20234)"/>
<path opacity="0.2" d="M56.6515 113.477L57.4644 113.826V43.451L56.6515 43.5672V113.477Z" fill="white"/>
<g opacity="0.3">
<path d="M96.9487 9.88964C89.2841 5.24444 80.6905 3.03796 71.1678 3.03796C80.3421 3.03796 88.8196 5.70896 96.1358 9.88964C100.433 28.1221 94.7422 44.0319 90.6777 50.3029C90.91 50.5352 90.91 50.8835 91.0261 51.1158C95.2068 44.8448 101.478 28.8188 96.9487 9.88964Z" fill="white"/>
</g>
<path d="M57.581 38.9223C57.581 37.2965 58.9745 35.4384 61.0649 35.09C61.0649 35.09 54.7938 35.9029 44.5744 41.1288C28.8968 49.0256 21 58.5483 21 58.5483C22.6258 56.9225 24.4839 55.5289 26.2259 54.1354C38.1872 45.6579 54.2132 39.9675 57.581 38.9223Z" fill="url(#paint4_linear_5913_20234)"/>
<path opacity="0.3" d="M101.246 12.7928C101.246 13.025 101.246 13.1412 101.478 13.3734C113.207 22.3155 121.917 37.7608 121.917 53.7867C121.917 81.5418 99.1553 104.303 71.168 104.303C71.4002 104.303 71.9809 104.303 71.9809 104.303C99.9682 104.303 122.73 81.5418 122.73 53.7867C122.614 37.2962 113.439 21.7348 101.246 12.7928Z" fill="white"/>
<defs>
<linearGradient id="paint0_linear_5913_20234" x1="12.7323" y1="163.163" x2="67.19" y2="12.3834" gradientUnits="userSpaceOnUse">
<stop stop-color="#2E5BD2"/>
<stop offset="1" stop-color="#3990EA"/>
</linearGradient>
<linearGradient id="paint1_linear_5913_20234" x1="64.6843" y1="66.4431" x2="124.01" y2="48.3263" gradientUnits="userSpaceOnUse">
<stop stop-color="#3390EC"/>
<stop offset="0.1017" stop-color="#3390EC"/>
<stop offset="0.1956" stop-color="#4E95F0"/>
<stop offset="0.2906" stop-color="#6E9BF4"/>
<stop offset="0.4398" stop-color="#949EEC"/>
<stop offset="0.5858" stop-color="#BDA2E4"/>
<stop offset="0.8271" stop-color="#E9BBC2"/>
<stop offset="0.8837" stop-color="#EEC6BA"/>
<stop offset="0.9841" stop-color="#FCE5A6"/>
<stop offset="1" stop-color="#FFEAA2"/>
</linearGradient>
<linearGradient id="paint2_linear_5913_20234" x1="41.8835" y1="133.639" x2="57.9355" y2="104.746" gradientUnits="userSpaceOnUse">
<stop stop-color="#4086EC"/>
<stop offset="0.1017" stop-color="#3390EC"/>
<stop offset="0.1956" stop-color="#4E95F0"/>
<stop offset="0.2906" stop-color="#6E9BF4"/>
<stop offset="0.4398" stop-color="#949EEC"/>
<stop offset="0.5858" stop-color="#BDA2E4"/>
<stop offset="0.7094" stop-color="#DBA8D1"/>
<stop offset="0.8271" stop-color="#E9BBC2"/>
<stop offset="0.8837" stop-color="#EEC6BA"/>
<stop offset="0.9841" stop-color="#FCE5A6"/>
<stop offset="1" stop-color="#FFEAA2"/>
</linearGradient>
<linearGradient id="paint3_linear_5913_20234" x1="6.5205" y1="10.1934" x2="78.4669" y2="42.9289" gradientUnits="userSpaceOnUse">
<stop stop-color="#2E5BD2"/>
<stop offset="1" stop-color="#3390EC"/>
</linearGradient>
<linearGradient id="paint4_linear_5913_20234" x1="28.2606" y1="39.5092" x2="62.4745" y2="59.1914" gradientUnits="userSpaceOnUse">
<stop stop-color="#4086EC"/>
<stop offset="0.1017" stop-color="#3390EC"/>
<stop offset="0.1956" stop-color="#4E95F0"/>
<stop offset="0.2906" stop-color="#6E9BF4"/>
<stop offset="0.4398" stop-color="#949EEC"/>
<stop offset="0.5858" stop-color="#BDA2E4"/>
<stop offset="0.7094" stop-color="#DBA8D1"/>
<stop offset="0.8271" stop-color="#E9BBC2"/>
<stop offset="0.8837" stop-color="#EEC6BA"/>
<stop offset="0.9841" stop-color="#FCE5A6"/>
<stop offset="1" stop-color="#FFEAA2"/>
</linearGradient>
</defs>
</svg>
