<svg width="144" height="144" viewBox="0 0 144 144" fill="none" xmlns="http://www.w3.org/2000/svg">
<path d="M63.4643 43.4514C54.29 46.2385 35.5931 55.7612 27.1156 63.658V141.001L51.2707 129.852C58.9352 126.252 63.2321 118.936 63.4643 114.058C63.4643 113.826 63.4643 43.4514 63.4643 43.4514Z" fill="url(#paint0_linear_5913_20234)"/>
<path d="M77.8645 104.304C105.852 104.304 128.613 81.5421 128.613 53.7871C128.613 37.2966 119.439 21.7352 107.362 12.7932C112.587 37.5289 98.4195 55.7613 97.8388 56.5742C88.8968 67.9549 76.9354 73.1808 76.9354 73.1808L68.5741 104.188C68.4579 104.304 77.8645 104.304 77.8645 104.304Z" fill="url(#paint1_linear_5913_20234)"/>
<path d="M40.7026 134.728C44.5349 132.522 45.9285 131.128 48.0188 129.038C53.2447 123.812 56.3802 111.154 56.3802 111.154L63.4641 113.825C63.4641 124.161 51.735 129.619 51.735 129.619L40.7026 134.728Z" fill="url(#paint2_linear_5913_20234)"/>
<path d="M32.3418 54.1347C30.4837 55.5282 28.7418 56.9218 27.116 58.5476V53.6702C27.116 27.3086 47.2065 5.36005 73.3357 3.15357C84.252 2.34066 94.4714 4.77939 102.949 9.88912C107.362 28.7022 101.091 44.9604 97.0263 51.1153C96.2134 48.0959 81.2326 34.2764 67.1808 35.0893C66.0195 35.0893 63.5808 36.4829 63.5808 38.9216C60.213 39.9668 44.1871 45.6572 32.3418 54.1347Z" fill="url(#paint3_linear_5913_20234)"/>
<path opacity="0.2" d="M62.6515 113.477L63.4644 113.826V43.451L62.6515 43.5672V113.477Z" fill="white"/>
<g opacity="0.3">
<path d="M102.949 9.88964C95.2841 5.24444 86.6905 3.03796 77.1678 3.03796C86.3421 3.03796 94.8196 5.70896 102.136 9.88964C106.433 28.1221 100.742 44.0319 96.6777 50.3029C96.91 50.5352 96.91 50.8835 97.0261 51.1158C101.207 44.8448 107.478 28.8188 102.949 9.88964Z" fill="white"/>
</g>
<path d="M63.5811 38.9223C63.5811 37.2965 64.9746 35.4384 67.065 35.09C67.065 35.09 60.794 35.9029 50.5745 41.1288C34.897 49.0256 27.0001 58.5483 27.0001 58.5483C28.6259 56.9225 30.484 55.5289 32.226 54.1354C44.1874 45.6579 60.2133 39.9675 63.5811 38.9223Z" fill="url(#paint4_linear_5913_20234)"/>
<path opacity="0.3" d="M107.246 12.7928C107.246 13.025 107.246 13.1412 107.478 13.3734C119.207 22.3155 127.917 37.7608 127.917 53.7867C127.917 81.5418 105.155 104.303 77.1681 104.303C77.4004 104.303 77.981 104.303 77.981 104.303C105.968 104.303 128.73 81.5418 128.73 53.7867C128.614 37.2962 119.439 21.7348 107.246 12.7928Z" fill="white"/>
<defs>
<linearGradient id="paint0_linear_5913_20234" x1="18.7323" y1="163.163" x2="73.19" y2="12.3834" gradientUnits="userSpaceOnUse">
<stop stop-color="#2E5BD2"/>
<stop offset="1" stop-color="#3990EA"/>
</linearGradient>
<linearGradient id="paint1_linear_5913_20234" x1="70.6843" y1="66.4431" x2="130.01" y2="48.3263" gradientUnits="userSpaceOnUse">
<stop stop-color="#3390EC"/>
<stop offset="0.1017" stop-color="#3390EC"/>
<stop offset="0.1956" stop-color="#4E95F0"/>
<stop offset="0.2906" stop-color="#6E9BF4"/>
<stop offset="0.4398" stop-color="#949EEC"/>
<stop offset="0.5858" stop-color="#BDA2E4"/>
<stop offset="0.8271" stop-color="#E9BBC2"/>
<stop offset="0.8837" stop-color="#EEC6BA"/>
<stop offset="0.9841" stop-color="#FCE5A6"/>
<stop offset="1" stop-color="#FFEAA2"/>
</linearGradient>
<linearGradient id="paint2_linear_5913_20234" x1="47.8835" y1="133.639" x2="63.9355" y2="104.746" gradientUnits="userSpaceOnUse">
<stop stop-color="#4086EC"/>
<stop offset="0.1017" stop-color="#3390EC"/>
<stop offset="0.1956" stop-color="#4E95F0"/>
<stop offset="0.2906" stop-color="#6E9BF4"/>
<stop offset="0.4398" stop-color="#949EEC"/>
<stop offset="0.5858" stop-color="#BDA2E4"/>
<stop offset="0.7094" stop-color="#DBA8D1"/>
<stop offset="0.8271" stop-color="#E9BBC2"/>
<stop offset="0.8837" stop-color="#EEC6BA"/>
<stop offset="0.9841" stop-color="#FCE5A6"/>
<stop offset="1" stop-color="#FFEAA2"/>
</linearGradient>
<linearGradient id="paint3_linear_5913_20234" x1="12.5206" y1="10.1934" x2="84.467" y2="42.9289" gradientUnits="userSpaceOnUse">
<stop stop-color="#2E5BD2"/>
<stop offset="1" stop-color="#3390EC"/>
</linearGradient>
<linearGradient id="paint4_linear_5913_20234" x1="34.2607" y1="39.5092" x2="68.4746" y2="59.1914" gradientUnits="userSpaceOnUse">
<stop stop-color="#4086EC"/>
<stop offset="0.1017" stop-color="#3390EC"/>
<stop offset="0.1956" stop-color="#4E95F0"/>
<stop offset="0.2906" stop-color="#6E9BF4"/>
<stop offset="0.4398" stop-color="#949EEC"/>
<stop offset="0.5858" stop-color="#BDA2E4"/>
<stop offset="0.7094" stop-color="#DBA8D1"/>
<stop offset="0.8271" stop-color="#E9BBC2"/>
<stop offset="0.8837" stop-color="#EEC6BA"/>
<stop offset="0.9841" stop-color="#FCE5A6"/>
<stop offset="1" stop-color="#FFEAA2"/>
</linearGradient>
</defs>
</svg>
