<svg width="13" height="13" viewBox="0 0 13 13" fill="none" xmlns="http://www.w3.org/2000/svg">
<path fill-rule="evenodd" clip-rule="evenodd" d="M7.20734 0.0134141C6.79189 -0.0459375 6.37273 0.093782 6.07597 0.390538L0.890524 5.57599C0.369826 6.09669 0.369825 6.94091 0.890524 7.46161L5.21405 11.7851C5.73474 12.3058 6.57896 12.3058 7.09966 11.7851L12.2851 6.59968C12.5819 6.30292 12.7216 5.88376 12.6622 5.46831L12.6218 1.18522C12.538 0.598588 12.0771 0.137659 11.4904 0.0538541L7.20734 0.0134141ZM8.70914 3.96651C9.22984 4.48721 10.0741 4.48721 10.5948 3.96651C11.1155 3.44581 11.1155 2.60159 10.5948 2.08089C10.0741 1.56019 9.22984 1.56019 8.70914 2.08089C8.18844 2.60159 8.18844 3.44581 8.70914 3.96651Z" fill="white"/>
</svg>
