<svg width="24" height="24" viewBox="0 0 24 24" fill="none" xmlns="http://www.w3.org/2000/svg">
<path d="M4.39014 10.4463C4.39014 6.79395 7.36182 3.82227 11.0142 3.82227C14.6665 3.82227 17.6382 6.79395 17.6382 10.4463C17.6382 11.957 17.1318 13.3433 16.2769 14.4556L20.3359 18.5396C20.5103 18.7139 20.6099 18.9546 20.6099 19.2202C20.6099 19.7764 20.2197 20.1997 19.6553 20.1997C19.3896 20.1997 19.1406 20.1084 18.9497 19.9175L14.8657 15.8252C13.7783 16.6055 12.4585 17.0703 11.0142 17.0703C7.36182 17.0703 4.39014 14.0986 4.39014 10.4463ZM5.80957 10.4463C5.80957 13.3184 8.14209 15.6509 11.0142 15.6509C13.8862 15.6509 16.2188 13.3184 16.2188 10.4463C16.2188 7.57422 13.8862 5.2417 11.0142 5.2417C8.14209 5.2417 5.80957 7.57422 5.80957 10.4463Z" fill="#333333"/>
</svg>
