<svg width="124" height="16" viewBox="0 0 124 16" fill="none" xmlns="http://www.w3.org/2000/svg">
<path d="M86.4189 15.9324H115.203C116.248 15.9324 117.283 15.7266 118.249 15.3266C119.214 14.9266 120.092 14.3403 120.831 13.6012C121.57 12.8621 122.156 11.9846 122.556 11.0189C122.956 10.0532 123.162 9.01822 123.162 7.97297V7.97297C123.164 6.92659 122.959 5.89012 122.56 4.92287C122.161 3.95562 121.575 3.07658 120.836 2.33605C120.096 1.59551 119.218 1.00801 118.252 0.607168C117.285 0.206323 116.249 -1.5081e-06 115.203 0L86.4189 0C85.3725 -1.5081e-06 84.3364 0.206323 83.3698 0.607168C82.4033 1.00801 81.5252 1.59551 80.7859 2.33605C80.0467 3.07658 79.4607 3.95562 79.0615 4.92287C78.6623 5.89012 78.4577 6.92659 78.4595 7.97297V7.97297C78.4595 10.084 79.298 12.1085 80.7907 13.6012C82.2834 15.0938 84.3079 15.9324 86.4189 15.9324ZM4.54955 15.955H8.06306V3.11712H12.6126V0H0V3.10811H4.54955V15.955ZM17.2072 15.955H20.7207V3.71622H20.7658L24.7973 15.9459H27.5L31.6667 3.71622H31.7117V15.9459H35.2252V0H29.9324L26.2387 10.4054H26.1937L22.5225 0H17.2072V15.955ZM40.1532 0.0540541H45.4234C46.6504 0.0559399 47.8726 0.207203 49.0631 0.504505C50.1472 0.761688 51.1688 1.23343 52.0676 1.89189C52.9369 2.54553 53.6367 3.39823 54.1081 4.37838C54.6411 5.54286 54.8985 6.81451 54.8604 8.09459C54.8848 9.27388 54.635 10.4427 54.1306 11.509C53.661 12.4685 52.9877 13.314 52.1577 13.9865C51.308 14.6677 50.3377 15.1827 49.2973 15.5045C48.1977 15.8537 47.0501 16.0285 45.8964 16.0225H40.1532V0.0540541ZM43.6667 12.7568H45.4685C46.2263 12.7619 46.9821 12.6788 47.7207 12.509C48.3798 12.3752 49.003 12.1035 49.5495 11.7117C50.0712 11.317 50.4861 10.7983 50.7568 10.2027C51.073 9.48224 51.2268 8.70099 51.2072 7.91441C51.2206 7.20962 51.0662 6.51175 50.7568 5.87838C50.4758 5.31709 50.0707 4.82721 49.5721 4.44595C49.0539 4.06111 48.469 3.77552 47.8468 3.6036C47.1607 3.41174 46.4512 3.31623 45.7387 3.31982H43.6667V12.7568ZM59.9504 0.0540541H65.8964C66.5942 0.0543943 67.2912 0.104068 67.982 0.202703C68.6373 0.287595 69.2729 0.485739 69.8604 0.788288C70.4091 1.07303 70.8747 1.49517 71.2117 2.01351C71.5855 2.64604 71.7656 3.37428 71.7297 4.10811C71.7606 4.92527 71.4932 5.72577 70.9775 6.36036C70.4511 6.97007 69.7572 7.41177 68.982 7.63063V7.65766C69.4808 7.72888 69.9646 7.88103 70.4144 8.10811C70.8298 8.31669 71.2037 8.59906 71.518 8.94144C71.8293 9.28431 72.0697 9.68541 72.2252 10.1216C72.393 10.5835 72.4769 11.0717 72.473 11.5631C72.5 12.3032 72.3123 13.0353 71.9324 13.6712C71.5791 14.2246 71.1008 14.6875 70.536 15.0225C69.9423 15.3789 69.2917 15.6303 68.6126 15.7658C67.9124 15.9159 67.1982 15.9914 66.482 15.991H59.9504V0.0540541ZM63.464 6.42793H66.009C66.2789 6.4294 66.548 6.39916 66.8108 6.33784C67.0621 6.28326 67.3017 6.1841 67.518 6.04505C67.7291 5.90892 67.9038 5.72338 68.027 5.5045C68.159 5.25509 68.2242 4.97576 68.2162 4.69369C68.2307 4.40702 68.1619 4.12228 68.018 3.87387C67.8782 3.66102 67.6879 3.48614 67.464 3.36486C67.213 3.23884 66.944 3.15224 66.6667 3.10811C66.392 3.05501 66.113 3.02786 65.8333 3.02703H63.4459L63.464 6.42793ZM63.464 13.027H66.6171C66.8944 13.0278 67.1709 12.9976 67.4414 12.9369C67.7104 12.8819 67.9659 12.7748 68.1937 12.6216C68.421 12.4716 68.6106 12.2712 68.7477 12.036C68.8957 11.7675 68.9688 11.4641 68.9595 11.1577C68.9715 10.8343 68.873 10.5166 68.6802 10.2568C68.491 10.023 68.2463 9.84023 67.9685 9.72523C67.6798 9.60498 67.3771 9.52174 67.0676 9.47748C66.7616 9.43403 66.4531 9.41146 66.1441 9.40991H63.4865L63.464 13.027Z" fill="url(#paint0_linear_5897_19054)"/>
<defs>
<linearGradient id="paint0_linear_5897_19054" x1="0" y1="8" x2="123.162" y2="8" gradientUnits="userSpaceOnUse">
<stop stop-color="#90CEA1"/>
<stop offset="0.56" stop-color="#3CBEC9"/>
<stop offset="1" stop-color="#00B3E5"/>
</linearGradient>
</defs>
</svg>
