<svg width="17" height="16" viewBox="0 0 17 16" fill="none" xmlns="http://www.w3.org/2000/svg">
<g clip-path="url(#clip0_1312_1671)">
<path d="M8.5 16C12.9183 16 16.5 12.4183 16.5 8C16.5 3.58172 12.9183 0 8.5 0C4.08172 0 0.5 3.58172 0.5 8C0.5 12.4183 4.08172 16 8.5 16Z" fill="#0088CC"/>
<path fill-rule="evenodd" clip-rule="evenodd" d="M6.27136 5.28564H10.7571C10.9285 5.28564 11.0714 5.31422 11.2428 5.39993C11.4428 5.48564 11.5571 5.6285 11.6142 5.74279C11.6142 5.74279 11.6142 5.77136 11.6428 5.77136C11.7285 5.91422 11.7856 6.08564 11.7856 6.28564C11.7856 6.45707 11.7571 6.6285 11.6428 6.79993L8.81421 11.6571C8.75707 11.7714 8.64278 11.8285 8.49993 11.8285C8.38564 11.8285 8.27136 11.7714 8.18564 11.6571L5.41421 6.79993C5.35707 6.68564 5.24278 6.54279 5.24278 6.31422C5.21421 6.11422 5.27136 5.94279 5.35707 5.77136C5.44278 5.59993 5.58564 5.45707 5.78564 5.39993C5.95707 5.28564 6.15707 5.28564 6.27136 5.28564ZM8.15707 5.97136H6.27136C6.15707 5.97136 6.09993 5.97136 6.07136 5.99993C6.01421 6.0285 5.98564 6.05707 5.95707 6.11422C5.9285 6.14279 5.9285 6.19993 5.9285 6.25707C5.9285 6.28564 5.95707 6.31422 6.01421 6.4285L8.15707 10.1428V5.97136ZM8.84278 5.97136V10.1714L11.0142 6.4285C11.0428 6.37136 11.0428 6.31422 11.0428 6.25707C11.0428 6.19993 11.0428 6.14279 11.0142 6.11422C10.9856 6.08564 10.9856 6.05707 10.9571 6.05707L10.9285 6.0285C10.8714 5.99993 10.8142 5.99993 10.7285 5.99993H8.84278V5.97136Z" fill="white"/>
</g>
<defs>
<clipPath id="clip0_1312_1671">
<rect width="16" height="16" fill="white" transform="translate(0.5)"/>
</clipPath>
</defs>
</svg>
