<svg width="28" height="28" viewBox="0 0 28 28" fill="none" xmlns="http://www.w3.org/2000/svg">
<g clip-path="url(#clip0_1366_1896)">
<path d="M14 28C21.732 28 28 21.732 28 14C28 6.26801 21.732 0 14 0C6.26801 0 0 6.26801 0 14C0 21.732 6.26801 28 14 28Z" fill="#0088CC"/>
<path fill-rule="evenodd" clip-rule="evenodd" d="M10.1001 9.25H17.9501C18.2501 9.25 18.5001 9.3 18.8001 9.45C19.1501 9.6 19.3501 9.85 19.4501 10.05C19.4501 10.05 19.4501 10.1 19.5001 10.1C19.6501 10.35 19.7501 10.65 19.7501 11C19.7501 11.3 19.7001 11.6 19.5001 11.9L14.5501 20.4C14.4501 20.6 14.2501 20.7 14.0001 20.7C13.8001 20.7 13.6001 20.6 13.4501 20.4L8.60012 11.9C8.50012 11.7 8.30012 11.45 8.30012 11.05C8.25012 10.7 8.35012 10.4 8.50012 10.1C8.65012 9.8 8.90012 9.55 9.25012 9.45C9.55012 9.25 9.90012 9.25 10.1001 9.25ZM13.4001 10.45H10.1001C9.90012 10.45 9.80012 10.45 9.75012 10.5C9.65012 10.55 9.60012 10.6 9.55012 10.7C9.50012 10.75 9.50012 10.85 9.50012 10.95C9.50012 11 9.55012 11.05 9.65012 11.25L13.4001 17.75V10.45ZM14.6001 10.45V17.8L18.4001 11.25C18.4501 11.15 18.4501 11.05 18.4501 10.95C18.4501 10.85 18.4501 10.75 18.4001 10.7C18.3501 10.65 18.3501 10.6 18.3001 10.6L18.2501 10.55C18.1501 10.5 18.0501 10.5 17.9001 10.5H14.6001V10.45Z" fill="white"/>
</g>
<defs>
<clipPath id="clip0_1366_1896">
<rect width="28" height="28" fill="white"/>
</clipPath>
</defs>
</svg>
