<svg width="16" height="17" viewBox="0 0 16 17" fill="none" xmlns="http://www.w3.org/2000/svg">
<path fill-rule="evenodd" clip-rule="evenodd" d="M2.53058 0.5H13.4876C13.9063 0.5 14.2553 0.569869 14.674 0.779476C15.1625 0.989083 15.4417 1.33843 15.5813 1.6179C15.5813 1.6179 15.5813 1.68777 15.6511 1.68777C15.8604 2.03712 16 2.45633 16 2.94541C16 3.36463 15.9302 3.78384 15.6511 4.20306L8.74187 16.0808C8.60229 16.3603 8.32313 16.5 7.97418 16.5C7.69502 16.5 7.41586 16.3603 7.2065 16.0808L0.436893 4.20306C0.297314 3.92358 0.0181544 3.57424 0.0181544 3.01528C-0.0516353 2.5262 0.0879438 2.10699 0.297313 1.68777C0.506682 1.26856 0.855631 0.919214 1.34416 0.779476C1.7629 0.5 2.25143 0.5 2.53058 0.5ZM7.13671 2.17686H2.53058C2.25143 2.17686 2.11185 2.17686 2.04206 2.24672C1.90248 2.31659 1.83269 2.38646 1.7629 2.5262C1.69311 2.59607 1.69311 2.73581 1.69311 2.87555C1.69311 2.94541 1.7629 3.01528 1.90248 3.29476L7.13671 12.3777V2.17686ZM8.81166 2.17686V12.4476L14.1157 3.29476C14.1855 3.15502 14.1855 3.01528 14.1855 2.87555C14.1855 2.73581 14.1855 2.59607 14.1157 2.5262C14.0459 2.45633 14.0459 2.38646 13.9761 2.38646L13.9063 2.31659C13.7667 2.24673 13.6271 2.24672 13.4178 2.24672H8.81166V2.17686Z" fill="white"/>
</svg>
