<svg width="12" height="12" viewBox="0 0 12 12" fill="none" xmlns="http://www.w3.org/2000/svg">
<path fill-rule="evenodd" clip-rule="evenodd" d="M1.89794 0H10.1157C10.4297 0 10.6914 0.0524015 11.0055 0.209607C11.3719 0.366812 11.5813 0.628821 11.6859 0.838428C11.6859 0.838428 11.6859 0.89083 11.7383 0.89083C11.8953 1.15284 12 1.46725 12 1.83406C12 2.14847 11.9477 2.46288 11.7383 2.77729L6.5564 11.6856C6.45172 11.8952 6.24235 12 5.98064 12C5.77127 12 5.5619 11.8952 5.40487 11.6856L0.32767 2.77729C0.222985 2.56769 0.0136158 2.30568 0.0136158 1.88646C-0.0387265 1.51965 0.0659579 1.20524 0.222985 0.89083C0.380012 0.57642 0.641723 0.31441 1.00812 0.209607C1.32217 -2.0302e-07 1.68857 0 1.89794 0ZM5.35253 1.25764H1.89794C1.68857 1.25764 1.58388 1.25764 1.53154 1.31004C1.42686 1.36245 1.37452 1.41485 1.32217 1.51965C1.26983 1.57205 1.26983 1.67686 1.26983 1.78166C1.26983 1.83406 1.32217 1.88646 1.42686 2.09607L5.35253 8.9083V1.25764ZM6.60874 1.25764V8.9607L10.5868 2.09607C10.6391 1.99127 10.6391 1.88646 10.6391 1.78166C10.6391 1.67686 10.6391 1.57205 10.5868 1.51965C10.5344 1.46725 10.5344 1.41485 10.4821 1.41485L10.4297 1.36245C10.325 1.31004 10.2204 1.31004 10.0633 1.31004H6.60874V1.25764Z" fill="#333333"/>
</svg>
